<?xml version="1.0" encoding="UTF-8" standalone="no"?>
<!-- Created with Inkscape (http://www.inkscape.org/) -->

<svg
   xmlns:dc="http://purl.org/dc/elements/1.1/"
   xmlns:cc="http://creativecommons.org/ns#"
   xmlns:rdf="http://www.w3.org/1999/02/22-rdf-syntax-ns#"
   xmlns:svg="http://www.w3.org/2000/svg"
   xmlns="http://www.w3.org/2000/svg"
   xmlns:sodipodi="http://sodipodi.sourceforge.net/DTD/sodipodi-0.dtd"
   xmlns:inkscape="http://www.inkscape.org/namespaces/inkscape"
   width="12.982223mm"
   height="12.982223mm"
   viewBox="0 0 46.000001 46.000001"
   id="svg4479"
   version="1.1"
   inkscape:version="0.91 r13725"
   sodipodi:docname="patchnplay_icon-s.svg">
  <defs
     id="defs4481" />
  <sodipodi:namedview
     id="base"
     pagecolor="#ffffff"
     bordercolor="#666666"
     borderopacity="1.0"
     inkscape:pageopacity="0.0"
     inkscape:pageshadow="2"
     inkscape:zoom="1.979899"
     inkscape:cx="-46.316658"
     inkscape:cy="-19.494849"
     inkscape:document-units="px"
     inkscape:current-layer="layer1"
     showgrid="false"
     fit-margin-top="0"
     fit-margin-left="0"
     fit-margin-right="0"
     fit-margin-bottom="0"
     inkscape:window-width="1325"
     inkscape:window-height="744"
     inkscape:window-x="41"
     inkscape:window-y="24"
     inkscape:window-maximized="1" />
  <metadata
     id="metadata4484">
    <rdf:RDF>
      <cc:Work
         rdf:about="">
        <dc:format>image/svg+xml</dc:format>
        <dc:type
           rdf:resource="http://purl.org/dc/dcmitype/StillImage" />
        <dc:title></dc:title>
      </cc:Work>
    </rdf:RDF>
  </metadata>
  <g
     inkscape:label="Ebene 1"
     inkscape:groupmode="layer"
     id="layer1"
     transform="translate(-342.71429,-429.3622)">
    <path
       id="path4441"
       d="m 345.71429,429.3622 c -1.662,0 -3,1.338 -3,3 l 0,40 c 0,1.662 1.338,3 3,3 l 40,0 c 1.662,0 3,-1.338 3,-3 l 0,-40 c 0,-1.662 -1.338,-3 -3,-3 l -40,0 z m 20.48242,12.04297 c 1.55273,0 2.93554,0.26367 4.14648,0.79102 1.21094,0.52734 2.1582,1.29493 2.8418,2.30078 0.69335,0.99609 1.03906,2.1875 1.03906,3.57422 l -5.44922,0 c 0,-0.72266 -0.23437,-1.29493 -0.70312,-1.71485 -0.45899,-0.42969 -1.12695,-0.64453 -2.00586,-0.64453 -0.58593,0 -1.08985,0.084 -1.50977,0.25 -0.41992,0.16602 -0.73633,0.38477 -0.95117,0.65821 -0.21484,0.26367 -0.32226,0.55664 -0.32226,0.8789 0,0.53712 0.30664,0.9961 0.92187,1.37696 0.625,0.38086 1.57812,0.78125 2.85742,1.20117 2.35352,0.76172 4.13086,1.70898 5.33203,2.84179 1.21094,1.13281 1.81641,2.57813 1.81641,4.33594 0,1.28907 -0.32812,2.38868 -0.98242,3.29688 -0.65429,0.9082 -1.57617,1.5957 -2.76758,2.06445 -1.19141,0.46875 -2.59374,0.70312 -4.20508,0.70312 -1.57226,0 -3.04687,-0.25781 -4.42383,-0.77539 -1.36719,-0.52734 -2.48047,-1.34765 -3.33984,-2.46093 -0.85937,-1.11328 -1.28906,-2.50977 -1.28906,-4.18946 l 5.49414,0 c 0,0.79102 0.12695,1.41602 0.38086,1.875 0.26367,0.45899 0.65429,0.78517 1.17187,0.98047 0.51758,0.18555 1.18556,0.2793 2.00586,0.2793 0.84962,0 1.47462,-0.16602 1.875,-0.49805 0.41016,-0.3418 0.61524,-0.75781 0.61524,-1.24609 0,-0.41992 -0.0879,-0.77148 -0.26367,-1.05469 -0.17579,-0.29297 -0.52149,-0.58007 -1.03907,-0.86328 -0.50781,-0.2832 -1.26953,-0.5957 -2.28515,-0.9375 -1.44532,-0.48828 -2.69141,-1.01563 -3.73633,-1.58203 -1.04492,-0.57617 -1.90429,-1.30859 -2.57813,-2.19727 -0.66406,-0.88867 -0.99609,-1.95898 -0.99609,-3.20898 0,-1.23047 0.35742,-2.29883 1.07031,-3.20703 0.72266,-0.9082 1.71875,-1.60743 2.98828,-2.09571 1.26954,-0.48828 2.69923,-0.73242 4.29102,-0.73242 z"
       style="fill:#d6ced2;fill-opacity:1;stroke-width:6;stroke-miterlimit:4;stroke-dasharray:none"
       inkscape:connector-curvature="0" />
  </g>
</svg>
