<?xml version="1.0" encoding="UTF-8" standalone="no"?>
<!-- Created with Inkscape (http://www.inkscape.org/) -->

<svg
   xmlns:dc="http://purl.org/dc/elements/1.1/"
   xmlns:cc="http://creativecommons.org/ns#"
   xmlns:rdf="http://www.w3.org/1999/02/22-rdf-syntax-ns#"
   xmlns:svg="http://www.w3.org/2000/svg"
   xmlns="http://www.w3.org/2000/svg"
   xmlns:sodipodi="http://sodipodi.sourceforge.net/DTD/sodipodi-0.dtd"
   xmlns:inkscape="http://www.inkscape.org/namespaces/inkscape"
   width="12.982223mm"
   height="12.982223mm"
   viewBox="0 0 46.000001 46.000001"
   id="svg5061"
   version="1.1"
   inkscape:version="0.91 r13725"
   sodipodi:docname="patchnplay_icon-minus.svg">
  <defs
     id="defs5063" />
  <sodipodi:namedview
     id="base"
     pagecolor="#ffffff"
     bordercolor="#666666"
     borderopacity="1.0"
     inkscape:pageopacity="0.0"
     inkscape:pageshadow="2"
     inkscape:zoom="0.35"
     inkscape:cx="-439.14286"
     inkscape:cy="-137"
     inkscape:document-units="px"
     inkscape:current-layer="layer1"
     showgrid="false"
     fit-margin-top="0"
     fit-margin-left="0"
     fit-margin-right="0"
     fit-margin-bottom="0"
     inkscape:window-width="1325"
     inkscape:window-height="744"
     inkscape:window-x="41"
     inkscape:window-y="24"
     inkscape:window-maximized="1" />
  <metadata
     id="metadata5066">
    <rdf:RDF>
      <cc:Work
         rdf:about="">
        <dc:format>image/svg+xml</dc:format>
        <dc:type
           rdf:resource="http://purl.org/dc/dcmitype/StillImage" />
        <dc:title></dc:title>
      </cc:Work>
    </rdf:RDF>
  </metadata>
  <g
     inkscape:label="Ebene 1"
     inkscape:groupmode="layer"
     id="layer1"
     transform="translate(-268.42857,-349.3622)">
    <path
       id="path4443"
       d="m 271.42857,349.3622 c -1.662,0 -3,1.338 -3,3 l 0,40 c 0,1.662 1.338,3 3,3 l 40,0 c 1.662,0 3,-1.338 3,-3 l 0,-40 c 0,-1.662 -1.338,-3 -3,-3 l -40,0 z m 10.83203,18.92773 18.33398,0 c 0.78746,0 1.42188,0.48606 1.42188,1.0918 l 0,5.95898 c 0,0.60574 -0.63442,1.09375 -1.42188,1.09375 l -18.33398,0 c -0.78746,0 -1.42188,-0.48801 -1.42188,-1.09375 l 0,-5.95898 c 0,-0.60574 0.63442,-1.0918 1.42188,-1.0918 z"
       style="fill:#d6ced2;fill-opacity:1;stroke-width:6;stroke-miterlimit:4;stroke-dasharray:none"
       inkscape:connector-curvature="0" />
  </g>
</svg>
