<svg xmlns="http://www.w3.org/2000/svg" viewBox="0 0 350 350">
  <g>
    <rect x="0" y="0" width="50" height="50" style="stroke:#ddd;fill:#ff1b1b;" />
    <rect x="50" y="0" width="50" height="50" style="stroke:#ddd;fill:#ff1b1b;" />
    <rect x="100" y="0" width="50" height="50" style="stroke:#ddd;fill:#ff5454;" />
    <rect x="150" y="0" width="50" height="50" style="stroke:#ddd;fill:#ff7575;" />
    <rect x="200" y="0" width="50" height="50" style="stroke:#ddd;fill:#ff9999;" />
    <rect x="250" y="0" width="50" height="50" style="stroke:#fff;fill:#eee;" />
    <rect x="300" y="0" width="50" height="50" style="stroke:#fff;fill:#f9f2f2;" />

    <rect x="0" y="50" width="50" height="50" style="stroke:#ddd;fill:#ff1b1b;" />
    <rect x="50" y="50" width="50" height="50" style="stroke:#ddd;fill:#ff1b1b;" />
    <rect x="100" y="50" width="50" height="50" style="stroke:#ddd;fill:#ff5454;" />
    <rect x="150" y="50" width="50" height="50" style="stroke:#ddd;fill:#ff7575;" />
    <rect x="200" y="50" width="50" height="50" style="stroke:#ddd;fill:#ff9999;" />
    <rect x="250" y="50" width="50" height="50" style="stroke:#fff;fill:#eee;" />
    <rect x="300" y="50" width="50" height="50" style="stroke:#fff;fill:#f9f2f2;" />

    <rect x="0" y="100" width="50" height="50" style="stroke:#ddd;fill:#ff5454;" />
    <rect x="50" y="100" width="50" height="50" style="stroke:#ddd;fill:#ff5454;" />
    <rect x="100" y="100" width="50" height="50" style="stroke:#ddd;fill:#ff5454;" />
    <rect x="150" y="100" width="50" height="50" style="stroke:#ddd;fill:#ff7575;" />
    <rect x="200" y="100" width="50" height="50" style="stroke:#ddd;fill:#ff9999;" />
    <rect x="250" y="100" width="50" height="50" style="stroke:#fff;fill:#eee;" />
    <rect x="300" y="100" width="50" height="50" style="stroke:#fff;fill:#f9f2f2;" />

    <rect x="0" y="150" width="50" height="50" style="stroke:#ddd;fill:#ff7575;" />
    <rect x="50" y="150" width="50" height="50" style="stroke:#ddd;fill:#ff7575;" />
    <rect x="100" y="150" width="50" height="50" style="stroke:#ddd;fill:#ff7575;" />
    <rect x="150" y="150" width="50" height="50" style="stroke:#ddd;fill:#ff7575;" />
    <rect x="200" y="150" width="50" height="50" style="stroke:#ddd;fill:#ff9999;" />
    <rect x="250" y="150" width="50" height="50" style="stroke:#fff;fill:#eee;" />
    <rect x="300" y="150" width="50" height="50" style="stroke:#fff;fill:#f9f2f2;" />

    <rect x="0" y="200" width="50" height="50" style="stroke:#ddd;fill:#ff9999;" />
    <rect x="50" y="200" width="50" height="50" style="stroke:#ddd;fill:#ff9999;" />
    <rect x="100" y="200" width="50" height="50" style="stroke:#ddd;fill:#ff9999;" />
    <rect x="150" y="200" width="50" height="50" style="stroke:#ddd;fill:#ff9999;" />
    <rect x="200" y="200" width="50" height="50" style="stroke:#ddd;fill:#ff9999;" />
    <rect x="250" y="200" width="50" height="50" style="stroke:#fff;fill:#eee;" />
    <rect x="300" y="200" width="50" height="50" style="stroke:#fff;fill:#f9f2f2;" />

    <rect x="0" y="250" width="50" height="50" style="stroke:#fff;fill:#eee;" />
    <rect x="50" y="250" width="50" height="50" style="stroke:#fff;fill:#eee;" />
    <rect x="100" y="250" width="50" height="50" style="stroke:#fff;fill:#eee;" />
    <rect x="150" y="250" width="50" height="50" style="stroke:#fff;fill:#eee;" />
    <rect x="200" y="250" width="50" height="50" style="stroke:#fff;fill:#eee;" />
    <rect x="250" y="250" width="50" height="50" style="stroke:#fff;fill:#eee;" />
    <rect x="300" y="250" width="50" height="50" style="stroke:#fff;fill:#f9f2f2;" />

    <rect x="0" y="300" width="50" height="50" style="stroke:#fff;fill:#f9f2f2;" />
    <rect x="50" y="300" width="50" height="50" style="stroke:#fff;fill:#f9f2f2;" />
    <rect x="100" y="300" width="50" height="50" style="stroke:#fff;fill:#f9f2f2;" />
    <rect x="150" y="300" width="50" height="50" style="stroke:#fff;fill:#f9f2f2;" />
    <rect x="200" y="300" width="50" height="50" style="stroke:#fff;fill:#f9f2f2;" />
    <rect x="250" y="300" width="50" height="50" style="stroke:#fff;fill:#f9f2f2;" />
    <rect x="300" y="300" width="50" height="50" style="stroke:#fff;fill:#f9f2f2;" />
  </g>
</svg>
