<svg xmlns="http://www.w3.org/2000/svg" viewBox="0 0 150 150">
  <g>
    <polygon class="r9-1-1-ldown" style="fill:#333;stroke:#ddd;" points="0,0 50,50 0,50" />
    <polygon class="r9-1-1-rdown" style="fill:#333;stroke:#ddd;" points="0,0 50,0 50,50" />
    <polygon class="r9-2-1-ldown" style="fill:#333;stroke:#ddd;" points="50,0 100,50 50,50" />
    <polygon class="r9-2-1-rdown" style="fill:#333;stroke:#ddd;" points="50,0 100,0 100,50" />
    <polygon class="r9-3-1-lup" style="fill:#333;stroke:#ddd;" points="100,0 150,0 100,50" />
    <polygon class="r9-3-1-rup" style="fill:#333;stroke:#ddd;" points="100,50 150,0 150,50" />
    <polygon class="r9-2-2-lup" style="fill:#333;stroke:#ddd;" points="0,50 50,50 0,100" />
    <polygon class="r9-2-2-rup" style="fill:#333;stroke:#ddd;" points="0,100 50,50 50,100" />
    <polygon class="r9-1-2-lup" style="fill:#333;stroke:#ddd;" points="50,50 100,50 50,100" />
    <polygon class="r9-1-2-rup" style="fill:#333;stroke:#ddd;" points="50,100 100,50 100,100" />
    <polygon class="r9-3-2-ldown" style="fill:#333;stroke:#ddd;" points="100,50 150,100 100,100" />
    <polygon class="r9-3-2-rdown" style="fill:#333;stroke:#ddd;" points="100,50 150,50 150,100" />
    <polygon class="r9-1-3-lup" style="fill:#333;stroke:#ddd;" points="0,100 50,100 0,150" />
    <polygon class="r9-1-3-rup" style="fill:#333;stroke:#ddd;" points="0,150 50,100 50,150" />
    <polygon class="r9-2-3-lup" style="fill:#333;stroke:#ddd;" points="50,100 100,100 50,150" />
    <polygon class="r9-2-3-rup" style="fill:#333;stroke:#ddd;" points="50,150 100,100 100,150" />
    <polygon class="r9-3-3-ldown" style="fill:#333;stroke:#ddd;" points="100,100 150,150 100,150" />
    <polygon class="r9-3-3-rdown" style="fill:#333;stroke:#ddd;" points="100,100 150,100 150,150" />
  </g>
</svg>
