<svg xmlns="http://www.w3.org/2000/svg" viewBox="0 0 150 150">
  <g>
    <polygon class="r9-1-1-ldown" style="fill:#333;stroke:#ddd;" points="0,0 50,50 0,50" />
    <polygon class="r9-1-1-rdown" style="fill:#333;stroke:#ddd;" points="0,0 50,0 50,50" />
    <rect x="50" y="0" width="50" height="50" style="stroke:#ddd;fill:#333;" />
    <polygon class="r9-3-1-lup" style="fill:#333;stroke:#ddd;" points="100,0 150,0 100,50" />
    <polygon class="r9-3-1-rup" style="fill:#333;stroke:#ddd;" points="100,50 150,0 150,50" />
    <rect x="0" y="50" width="50" height="50" style="stroke:#ddd;fill:#333;" />
    <rect x="50" y="50" width="50" height="50" style="stroke:#ddd;fill:#333;" />
    <rect x="100" y="50" width="50" height="50" style="stroke:#ddd;fill:#333;" />
    <polygon class="r9-1-3-lup" style="fill:#333;stroke:#ddd;" points="0,100 50,100 0,150" />
    <polygon class="r9-1-3-rup" style="fill:#333;stroke:#ddd;" points="0,150 50,100 50,150" />
    <rect x="50" y="100" width="50" height="50" style="stroke:#ddd;fill:#333;" />
    <polygon class="r9-3-3-ldown" style="fill:#333;stroke:#ddd;" points="100,100 150,150 100,150" />
    <polygon class="r9-3-3-rdown" style="fill:#333;stroke:#ddd;" points="100,100 150,100 150,150" />
  </g>
</svg>
